<svg width="48" height="48" viewBox="0 0 48 48" fill="none" xmlns="http://www.w3.org/2000/svg">
<path d="M30.3 38.5875L28.5 39.435L28.4175 39.45C28.3502 38.704 28.1215 37.9815 27.7472 37.3327C27.373 36.6839 26.8621 36.1242 26.25 35.6925V33L30.3 34.9125C30.6565 35.0695 30.9597 35.3268 31.1725 35.6531C31.3853 35.9793 31.4986 36.3605 31.4986 36.75C31.4986 37.1395 31.3853 37.5207 31.1725 37.8469C30.9597 38.1732 30.6565 38.4305 30.3 38.5875Z" fill="#ED995A"/>
<path d="M28.3215 39.6495C28.1519 39.6492 27.9874 39.5914 27.8549 39.4855C27.7223 39.3797 27.6296 39.2321 27.5918 39.0667C27.396 37.9622 26.7734 36.9791 25.8585 36.33C25.7489 36.2629 25.6583 36.1687 25.5955 36.0566C25.5328 35.9444 25.4999 35.818 25.5 35.6895V32.9512C25.5 32.7523 25.579 32.5616 25.7197 32.4209C25.8603 32.2802 26.0511 32.2012 26.25 32.2012C26.4489 32.2012 26.6397 32.2802 26.7803 32.4209C26.921 32.5616 27 32.7523 27 32.9512V35.2957C28.0593 36.171 28.7845 37.3847 29.0535 38.7322C29.0757 38.8284 29.0787 38.9279 29.0624 39.0252C29.046 39.1225 29.0107 39.2157 28.9583 39.2993C28.9059 39.3829 28.8375 39.4553 28.7571 39.5125C28.6766 39.5696 28.5857 39.6103 28.4895 39.6322C28.4343 39.6442 28.378 39.65 28.3215 39.6495Z" fill="#E2884B"/>
<path d="M26.2491 32.37V28.5C26.2491 27.9033 26.012 27.331 25.5901 26.909C25.1681 26.4871 24.5958 26.25 23.9991 26.25C23.4023 26.25 22.83 26.4871 22.4081 26.909C21.9861 27.331 21.7491 27.9033 21.7491 28.5V33.3075L19.6341 33.75L14.9991 34.7175L14.2491 34.875L12.4041 35.2575L11.3466 30.195L5.97656 4.4175L14.2491 2.6925L14.9991 2.535L16.3641 2.25H23.9091L30.0216 31.5825L26.2491 32.37Z" fill="#02966C"/>
<path d="M41.9784 4.38L41.0709 8.7975L35.6559 35.235L29.0409 33.8775L28.4184 33.75L24.6384 32.9775L18.0234 31.62L24.0384 2.25H31.5909L33.0009 2.5425L33.7509 2.6925L37.5909 3.48L41.9784 4.38Z" fill="#02966C"/>
<path d="M33 2.25H15V33.75H33V2.25Z" fill="#02966C"/>
<path d="M41.9774 4.37998L41.0699 8.79748C39.9041 8.55228 38.8831 7.85483 38.2308 6.85803C37.5784 5.86123 37.348 4.64644 37.5899 3.47998L41.9774 4.37998Z" fill="#38CE98"/>
<path d="M33 14.646C33.4719 15.0681 33.8494 15.585 34.1078 16.1629C34.3663 16.7409 34.4999 17.3669 34.4999 18C34.4999 18.6331 34.3663 19.2591 34.1078 19.837C33.8494 20.415 33.4719 20.9319 33 21.354V14.646Z" fill="#F9E280"/>
<path d="M15 2.25H24V21.1815C24 21.9456 23.8495 22.7022 23.5571 23.4081C23.2647 24.1141 22.8361 24.7555 22.2958 25.2958C21.7555 25.8361 21.1141 26.2647 20.4081 26.5571C19.7022 26.8495 18.9456 27 18.1815 27H15V2.25Z" fill="#11AA7B"/>
<path d="M26.25 28.5V32.37L21.75 33.3075V28.5C21.75 27.9033 21.9871 27.331 22.409 26.909C22.831 26.4871 23.4033 26.25 24 26.25C24.5967 26.25 25.169 26.4871 25.591 26.909C26.0129 27.331 26.25 27.9033 26.25 28.5Z" fill="#02966C"/>
<path d="M6.89261 8.82378C7.47124 8.70317 8.02045 8.46974 8.50885 8.13684C8.99725 7.80393 9.41529 7.37807 9.73908 6.88357C10.0629 6.38908 10.2861 5.83564 10.3959 5.25487C10.5058 4.6741 10.5002 4.07737 10.3794 3.49878L5.97461 4.41828L6.89261 8.82378ZM14.9994 14.6475V21.345C14.2791 20.7099 13.7865 19.8564 13.5969 18.915C13.4342 18.1432 13.4782 17.3421 13.7244 16.5927C13.9707 15.8434 14.4105 15.1724 14.9994 14.6475Z" fill="#38CE98"/>
<path d="M34.41 18.9C34.2195 19.8471 33.7243 20.7058 33 21.345V14.6475C33.586 15.1715 34.0244 15.8397 34.2718 16.5858C34.5192 17.3319 34.5668 18.1298 34.41 18.9Z" fill="#39D8A3"/>
<path d="M15 2.54248V34.7175L14.25 34.875V2.69248L15 2.54248Z" fill="#038E63"/>
<path d="M16.8094 34.3373C16.6888 33.7586 16.4555 33.2093 16.1226 32.7208C15.7897 32.2323 15.3639 31.8142 14.8694 31.4903C14.3749 31.1665 13.8214 30.9432 13.2406 30.8333C12.6598 30.7234 12.063 30.729 11.4844 30.8498L12.4024 35.2553L16.8094 34.3373Z" fill="#38CE98"/>
<path d="M15 6.75C16.1935 6.75 17.3381 6.27589 18.182 5.43198C19.0259 4.58807 19.5 3.44347 19.5 2.25H15V6.75ZM33 6.75C31.8065 6.75 30.6619 6.27589 29.818 5.43198C28.9741 4.58807 28.5 3.44347 28.5 2.25H33V6.75Z" fill="#39D8A3"/>
<path d="M24 22.5C26.4853 22.5 28.5 20.4853 28.5 18C28.5 15.5147 26.4853 13.5 24 13.5C21.5147 13.5 19.5 15.5147 19.5 18C19.5 20.4853 21.5147 22.5 24 22.5Z" fill="#39D8A3"/>
<path d="M24.75 9H23.25V10.5H24.75V9Z" fill="#39D8A3"/>
<path d="M19.5 33.75C19.5 32.5565 19.0259 31.4119 18.182 30.568C17.3381 29.7241 16.1935 29.25 15 29.25V33.75H19.5Z" fill="#39D8A3"/>
<path d="M33.75 2.69248V33.75H33V2.54248L33.75 2.69248Z" fill="#038E63"/>
<path d="M31.248 34.3327C31.3664 33.7536 31.5976 33.2034 31.9286 32.7137C32.2596 32.224 32.6839 31.8042 33.1771 31.4785C33.6704 31.1527 34.2229 30.9274 34.8033 30.8152C35.3837 30.7031 35.9805 30.7064 36.5595 30.825L35.6595 35.2327L31.248 34.3327Z" fill="#38CE98"/>
<path d="M28.5 33.75C28.5 32.5565 28.9741 31.4119 29.818 30.568C30.6619 29.7241 31.8065 29.25 33 29.25V33.75H28.5Z" fill="#39D8A3"/>
<path d="M28.5 40.5C28.5 43.4025 26.82 45.75 24.75 45.75H15L10.5 36L11.25 30H11.2725L11.3475 30.195L12.405 35.2575L19.635 33.75H21.75V28.5C21.75 27.9033 21.9871 27.331 22.409 26.909C22.831 26.4871 23.4033 26.25 24 26.25C24.5967 26.25 25.169 26.4871 25.591 26.909C26.0129 27.331 26.25 27.9033 26.25 28.5V35.6925C26.3329 35.7432 26.413 35.7982 26.49 35.8575C26.5725 35.9175 26.6475 35.9775 26.73 36.045C26.8061 36.1111 26.8787 36.1812 26.9475 36.255C26.9844 36.2881 27.0194 36.3231 27.0525 36.36C27.0975 36.4125 27.15 36.465 27.195 36.525C27.5069 36.8967 27.7598 37.314 27.945 37.7625C27.9977 37.8743 28.0428 37.9896 28.08 38.1075C28.1007 38.1512 28.1183 38.1963 28.1325 38.2425C28.1542 38.2876 28.1694 38.3356 28.1775 38.385C28.2279 38.5326 28.2705 38.6829 28.305 38.835C28.35 39.0375 28.3875 39.24 28.4175 39.45C28.4403 39.5739 28.4554 39.6992 28.4625 39.825C28.4774 39.8991 28.4849 39.9744 28.485 40.05C28.4925 40.2 28.5 40.35 28.5 40.5Z" fill="#F7AA6B"/>
<path d="M24 26.25V34.8975C23.9984 37.2537 23.2802 39.5537 21.9406 41.4921C20.601 43.4305 18.7035 44.9155 16.5 45.75H15L10.5 36L11.25 30H11.2725L11.3475 30.195L12.405 35.2575L19.635 33.75H21.75V28.5C21.75 27.9033 21.9871 27.331 22.409 26.909C22.831 26.4871 23.4033 26.25 24 26.25Z" fill="#F9B378"/>
<path d="M29.25 18C29.25 16.9617 28.9421 15.9466 28.3652 15.0833C27.7883 14.2199 26.9684 13.547 26.0091 13.1496C25.0498 12.7523 23.9942 12.6483 22.9758 12.8509C21.9574 13.0535 21.0219 13.5535 20.2877 14.2877C19.5535 15.0219 19.0535 15.9574 18.8509 16.9758C18.6483 17.9942 18.7523 19.0498 19.1496 20.0091C19.547 20.9684 20.2199 21.7883 21.0833 22.3652C21.9466 22.9421 22.9617 23.25 24 23.25C25.3919 23.2484 26.7263 22.6948 27.7106 21.7106C28.6948 20.7263 29.2484 19.3919 29.25 18ZM24 21.75C23.2583 21.75 22.5333 21.5301 21.9166 21.118C21.2999 20.706 20.8193 20.1203 20.5355 19.4351C20.2516 18.7498 20.1774 17.9958 20.3221 17.2684C20.4668 16.541 20.8239 15.8728 21.3484 15.3484C21.8728 14.8239 22.541 14.4668 23.2684 14.3221C23.9958 14.1774 24.7498 14.2516 25.4351 14.5355C26.1203 14.8193 26.706 15.2999 27.118 15.9166C27.5301 16.5333 27.75 17.2583 27.75 18C27.7488 18.9942 27.3533 19.9473 26.6503 20.6503C25.9473 21.3533 24.9942 21.7488 24 21.75Z" fill="black"/>
<path d="M24.75 9H23.25V10.5H24.75V9Z" fill="black"/>
<path d="M7.14312 13.65L8.61237 13.35L7.78287 9.32475C8.84593 8.93823 9.75587 8.21898 10.3774 7.27392C10.999 6.32887 11.299 5.20846 11.2329 4.07925L14.2501 3.45675V14.3363C13.6495 14.9501 13.2081 15.7016 12.9646 16.5252C12.721 17.3488 12.6827 18.2194 12.8529 19.0613C13.0584 20.0434 13.5437 20.9451 14.2501 21.6578V30.3533C13.5489 30.0824 12.7978 29.9651 12.0474 30.009L8.92512 14.8725L7.45587 15.1725L10.5001 29.9422L9.75462 35.907C9.73718 36.046 9.75901 36.187 9.81762 36.3142L14.3176 46.0642C14.401 46.2449 14.5526 46.385 14.7393 46.4538C14.9259 46.5225 15.1323 46.5143 15.3129 46.431C15.4935 46.3477 15.6336 46.196 15.7024 46.0093C15.7711 45.8227 15.763 45.6164 15.6796 45.4358L11.2711 35.88L11.4429 34.5075L11.6259 35.394C11.6604 35.5633 11.7524 35.7154 11.8861 35.8248C12.0199 35.9341 12.1874 35.9939 12.3601 35.994C12.4249 35.9939 12.4894 35.9856 12.5521 35.9692L18.0976 34.5H21.0001V37.3597C21.0001 37.5587 21.0791 37.7494 21.2198 37.8901C21.3604 38.0307 21.5512 38.1097 21.7501 38.1097C21.949 38.1097 22.1398 38.0307 22.2805 37.8901C22.4211 37.7494 22.5001 37.5587 22.5001 37.3597V28.5C22.5001 28.1022 22.6582 27.7206 22.9395 27.4393C23.2208 27.158 23.6023 27 24.0001 27C24.3979 27 24.7795 27.158 25.0608 27.4393C25.3421 27.7206 25.5001 28.1022 25.5001 28.5V35.6895C25.5 35.818 25.5329 35.9444 25.5957 36.0566C25.6584 36.1688 25.749 36.2629 25.8586 36.33C27.0076 37.0327 27.7501 38.67 27.7501 40.5C27.7501 42.939 26.3761 45 24.7501 45C24.5512 45 24.3604 45.079 24.2198 45.2197C24.0791 45.3603 24.0001 45.5511 24.0001 45.75C24.0001 45.9489 24.0791 46.1397 24.2198 46.2803C24.3604 46.421 24.5512 46.5 24.7501 46.5C27.2319 46.5 29.2501 43.8083 29.2501 40.5C29.2501 40.3065 29.2351 40.1167 29.2216 39.9263L30.6174 39.267C31.1018 39.0476 31.5131 38.6939 31.8025 38.2477C32.0919 37.8016 32.2473 37.2818 32.2501 36.75C32.2498 36.2005 32.0827 35.6641 31.7709 35.2118L35.4834 35.9775C35.5328 35.9872 35.583 35.9922 35.6334 35.9925C35.8063 35.9925 35.9739 35.9328 36.1078 35.8235C36.2417 35.7142 36.3338 35.5619 36.3684 35.3925L38.5351 24.8797L37.0659 24.5798L35.9469 30.0098C35.1987 29.9658 34.4497 30.0821 33.7501 30.351V21.651C34.454 20.9394 34.9374 20.0395 35.1421 19.0597C35.3117 18.2194 35.2735 17.3503 35.031 16.5281C34.7884 15.7058 34.3487 14.9552 33.7501 14.3415V3.4575L36.7599 4.07775C36.693 5.20709 36.9927 6.32783 37.6144 7.27303C38.236 8.21824 39.1464 8.93735 40.2099 9.32325L37.3734 23.094L38.8426 23.394L42.7291 4.54275C42.7693 4.34856 42.731 4.14635 42.6225 3.98035C42.514 3.81436 42.3441 3.6981 42.1501 3.657L33.6564 1.9065C33.5948 1.78509 33.501 1.68296 33.3852 1.61126C33.2695 1.53957 33.1363 1.50108 33.0001 1.5H15.0001C14.8643 1.50107 14.7313 1.53941 14.6157 1.61082C14.5001 1.68223 14.4064 1.78398 14.3446 1.905L5.85012 3.657C5.65542 3.69725 5.48467 3.81316 5.3754 3.97925C5.26613 4.14534 5.22727 4.34802 5.26737 4.54275L7.14312 13.65ZM15.7501 33V30.075C16.4701 30.2234 17.1309 30.5796 17.6507 31.0994C18.1706 31.6192 18.5267 32.28 18.6751 33H15.7501ZM12.3534 31.4955C13.0215 31.4999 13.6763 31.6827 14.2501 32.025V33.75C14.2538 33.8201 14.2677 33.8894 14.2914 33.9555L12.9346 34.3148L12.3534 31.4955ZM24.0001 25.5C23.2045 25.5 22.4414 25.8161 21.8788 26.3787C21.3162 26.9413 21.0001 27.7044 21.0001 28.5V33H20.1901C20.0273 31.8803 19.5071 30.8431 18.7071 30.0431C17.907 29.243 16.8698 28.7228 15.7501 28.56V7.44C16.8698 7.2772 17.907 6.75701 18.7071 5.95694C19.5071 5.15686 20.0273 4.11971 20.1901 3H27.8101C27.9729 4.11971 28.4931 5.15686 29.2932 5.95694C30.0933 6.75701 31.1304 7.2772 32.2501 7.44V28.56C31.1458 28.7217 30.1216 29.2308 29.326 30.0136C28.5304 30.7964 28.0047 31.8122 27.8251 32.9137L27.0001 32.5245V28.5C27.0001 27.7044 26.6841 26.9413 26.1214 26.3787C25.5588 25.8161 24.7958 25.5 24.0001 25.5ZM29.3251 33C29.4735 32.28 29.8297 31.6192 30.3495 31.0994C30.8694 30.5796 31.5301 30.2234 32.2501 30.075V33H29.3251ZM29.9761 37.9103L28.9546 38.3925C28.6497 37.1786 27.9649 36.0938 27.0001 35.2965V34.5H27.6699L29.9769 35.5897C30.2059 35.6852 30.4016 35.8463 30.5392 36.0528C30.6768 36.2593 30.7503 36.5019 30.7503 36.75C30.7503 36.9981 30.6768 37.2407 30.5392 37.4472C30.4016 37.6537 30.2059 37.8148 29.9769 37.9103H29.9761ZM35.6409 31.4955L35.0514 34.3568L33.6699 34.0718C33.721 33.9721 33.7485 33.862 33.7501 33.75V32.025C34.3223 31.6834 34.9745 31.5006 35.6409 31.4955ZM40.5159 7.83825C39.841 7.54763 39.266 7.06564 38.862 6.45184C38.458 5.83804 38.2427 5.11933 38.2426 4.3845L41.1061 4.97475L40.5159 7.83825ZM32.2501 5.925C31.5301 5.77658 30.8694 5.42044 30.3495 4.90061C29.8297 4.38077 29.4735 3.72002 29.3251 3H32.2501V5.925ZM18.6751 3C18.5267 3.72002 18.1706 4.38077 17.6507 4.90061C17.1309 5.42044 16.4701 5.77658 15.7501 5.925V3H18.6751ZM9.75012 4.3845C9.74998 5.11949 9.53454 5.83835 9.13042 6.45227C8.72629 7.06619 8.15118 7.54828 7.47612 7.839L6.88587 4.97475L9.75012 4.3845Z" fill="black"/>
</svg>
